<?xml version="1.0" encoding="UTF-8" standalone="no"?>
<!-- Created with Inkscape (http://www.inkscape.org/) -->
<svg
   xmlns:dc="http://purl.org/dc/elements/1.1/"
   xmlns:cc="http://creativecommons.org/ns#"
   xmlns:rdf="http://www.w3.org/1999/02/22-rdf-syntax-ns#"
   xmlns:svg="http://www.w3.org/2000/svg"
   xmlns="http://www.w3.org/2000/svg"
   xmlns:xlink="http://www.w3.org/1999/xlink"
   xmlns:sodipodi="http://sodipodi.sourceforge.net/DTD/sodipodi-0.dtd"
   xmlns:inkscape="http://www.inkscape.org/namespaces/inkscape"
   width="666.97162"
   height="511.34198"
   id="svg2"
   sodipodi:version="0.32"
   inkscape:version="0.46"
   sodipodi:docname="pigeon.svg"
   inkscape:output_extension="org.inkscape.output.svg.inkscape"
   version="1.0"
   style="enable-background:new">
  <defs
     id="defs4">
    <linearGradient
       inkscape:collect="always"
       id="linearGradient3706">
      <stop
         style="stop-color:#9f9f9f;stop-opacity:1;"
         offset="0"
         id="stop3708" />
      <stop
         style="stop-color:#9f9f9f;stop-opacity:0;"
         offset="1"
         id="stop3710" />
    </linearGradient>
    <linearGradient
       id="linearGradient3692">
      <stop
         style="stop-color:#77c7aa;stop-opacity:0;"
         offset="0"
         id="stop3694" />
      <stop
         id="stop3702"
         offset="0.40968412"
         style="stop-color:#77c7aa;stop-opacity:0.74901961;" />
      <stop
         id="stop3700"
         offset="0.6091091"
         style="stop-color:#77c7aa;stop-opacity:0.49803922;" />
      <stop
         style="stop-color:#f56edf;stop-opacity:0.15929204;"
         offset="1"
         id="stop3696" />
    </linearGradient>
    <linearGradient
       id="linearGradient3197">
      <stop
         style="stop-color:#4f4f4f;stop-opacity:1;"
         offset="0"
         id="stop3199" />
      <stop
         style="stop-color:#000000;stop-opacity:1;"
         offset="1"
         id="stop3201" />
    </linearGradient>
    <linearGradient
       id="linearGradient3170">
      <stop
         style="stop-color:#ffd700;stop-opacity:1;"
         offset="0"
         id="stop3172" />
      <stop
         id="stop3178"
         offset="0.7638889"
         style="stop-color:#ff2c00;stop-opacity:1;" />
      <stop
         style="stop-color:#ff3700;stop-opacity:1;"
         offset="0.7638889"
         id="stop3184" />
      <stop
         style="stop-color:#000000;stop-opacity:1;"
         offset="1"
         id="stop3180" />
    </linearGradient>
    <inkscape:perspective
       sodipodi:type="inkscape:persp3d"
       inkscape:vp_x="0 : 526.18109 : 1"
       inkscape:vp_y="0 : 1000 : 0"
       inkscape:vp_z="744.09448 : 526.18109 : 1"
       inkscape:persp3d-origin="372.04724 : 350.78739 : 1"
       id="perspective10" />
    <inkscape:perspective
       id="perspective2410"
       inkscape:persp3d-origin="372.04724 : 350.78739 : 1"
       inkscape:vp_z="744.09448 : 526.18109 : 1"
       inkscape:vp_y="0 : 1000 : 0"
       inkscape:vp_x="0 : 526.18109 : 1"
       sodipodi:type="inkscape:persp3d" />
    <radialGradient
       inkscape:collect="always"
       xlink:href="#linearGradient3170"
       id="radialGradient3176"
       cx="646.49762"
       cy="95.302536"
       fx="646.49762"
       fy="95.302536"
       r="8.3337584"
       gradientTransform="matrix(1.1121365,-6.8445873e-3,1.3370461e-2,0.7795731,-73.770244,25.432232)"
       gradientUnits="userSpaceOnUse" />
    <linearGradient
       inkscape:collect="always"
       xlink:href="#linearGradient3197"
       id="linearGradient3203"
       x1="706.04657"
       y1="125.6219"
       x2="727.73743"
       y2="140.79639"
       gradientUnits="userSpaceOnUse" />
    <linearGradient
       inkscape:collect="always"
       xlink:href="#linearGradient3692"
       id="linearGradient3698"
       x1="653.59198"
       y1="139.33461"
       x2="658.04834"
       y2="258.26965"
       gradientUnits="userSpaceOnUse"
       gradientTransform="matrix(0.5697347,0,0,1.0489708,312.56646,-2.050104)" />
    <linearGradient
       inkscape:collect="always"
       xlink:href="#linearGradient3706"
       id="linearGradient3712"
       x1="621.42554"
       y1="199.07045"
       x2="634.6283"
       y2="191.64584"
       gradientUnits="userSpaceOnUse"
       gradientTransform="matrix(0.996478,0.3012737,-0.2894009,0.957208,102.61673,-180.97396)" />
  </defs>
  <sodipodi:namedview
     id="base"
     pagecolor="#ffffff"
     bordercolor="#666666"
     borderopacity="1.0"
     gridtolerance="10000"
     guidetolerance="10"
     objecttolerance="10"
     inkscape:pageopacity="0.0"
     inkscape:pageshadow="2"
     inkscape:zoom="0.70710678"
     inkscape:cx="316.79113"
     inkscape:cy="197.27818"
     inkscape:document-units="px"
     inkscape:current-layer="layer3"
     showgrid="false"
     inkscape:window-width="1400"
     inkscape:window-height="994"
     inkscape:window-x="0"
     inkscape:window-y="22"
     showguides="true"
     inkscape:guide-bbox="true" />
  <metadata
     id="metadata7">
    <rdf:RDF>
      <cc:Work
         rdf:about="">
        <dc:format>image/svg+xml</dc:format>
        <dc:type
           rdf:resource="http://purl.org/dc/dcmitype/StillImage" />
      </cc:Work>
    </rdf:RDF>
  </metadata>
  <g
     inkscape:groupmode="layer"
     id="layer10"
     inkscape:label="shadow"
     style="display:inline"
     transform="translate(-61.696063,-49.197282)">
    <path
       style="fill:#000000;fill-opacity:0.26262626;fill-rule:evenodd;stroke:none;stroke-width:1px;stroke-linecap:butt;stroke-linejoin:miter;stroke-opacity:1"
       d="M 508,522 C 508,522 391,524 367,526 C 343,528 87.000001,556 80.000001,556 C 73.000001,556 -17,569 278,551 C 278,551 471,535 513,534 C 555,533 508,520 508,522 z"
       id="path3265" />
    <path
       style="fill:#000000;fill-opacity:0.26262626;fill-rule:evenodd;stroke:none;stroke-width:1px;stroke-linecap:butt;stroke-linejoin:miter;stroke-opacity:1"
       d="M 527.67844,534.94618 L 546.41677,534.94618 L 537.75471,528.22866 L 528.03199,528.40544 L 525.38034,532.29453 L 527.67844,534.94618 z"
       id="path3267" />
  </g>
  <g
     inkscape:groupmode="layer"
     id="layer6"
     inkscape:label="feet"
     style="opacity:1;display:inline"
     transform="translate(-61.696063,-49.197282)">
    <path
       id="path3733"
       d="M 531.5625,477.9375 C 530.03544,478.00853 529.3125,480.3125 529.3125,480.3125 C 529.31249,480.31251 528.31091,512.86263 522.25,495.4375 C 516.18911,478.01236 511.125,483.84375 511.125,483.84375 L 510.5625,484.40625 C 510.61016,484.49387 510.67147,484.56761 510.71875,484.65625 C 516.43303,495.37053 522.5,511.78125 522.5,511.78125 L 510,510.34375 C 510,510.34375 504.9866,510.36605 505.34375,518.9375 L 509.65625,518.21875 L 511.4375,520 C 511.4375,520 505.72323,524.99109 508.9375,526.0625 C 512.15179,527.13393 513.93748,527.15623 513.9375,527.15625 L 515.71875,535.34375 C 532.50446,535.34375 529.65623,532.15623 529.65625,532.15625 C 529.65625,532.15625 539.99554,531.06697 539.28125,531.78125 C 538.56696,532.49554 541.43748,534.65623 541.4375,534.65625 C 541.4375,534.65625 569.64732,536.05806 570.71875,535.34375 C 571.79018,534.62947 570.71875,533.21875 570.71875,533.21875 L 630,530.34375 L 633.21875,528.9375 L 644.65625,528.9375 C 644.65625,522.50893 635,518.56252 635,518.5625 L 614.65625,518.9375 C 631.44196,516.4375 599.65623,514.65623 599.65625,514.65625 L 556.78125,517.84375 L 532.59375,478.25 C 532.20854,478.03825 531.87734,477.92286 531.5625,477.9375 z"
       style="opacity:1;fill:#ff6262;fill-opacity:1;fill-rule:evenodd;stroke:none;stroke-width:1px;stroke-linecap:butt;stroke-linejoin:miter;stroke-opacity:1;display:inline" />
  </g>
  <g
     inkscape:groupmode="layer"
     id="layer14"
     inkscape:label="toes"
     style="display:inline"
     transform="translate(-61.696063,-49.197282)">
    <path
       style="fill:#161616;fill-opacity:1;fill-rule:evenodd;stroke:#000000;stroke-width:1px;stroke-linecap:butt;stroke-linejoin:miter;stroke-opacity:1"
       d="M 510,510.34375 C 510,510.34375 504.9866,510.36605 505.34375,518.9375 L 509.65625,518.21875 L 510.03125,518.59375 C 514.33486,513.79256 511.82142,511.14591 511,510.46875 L 510,510.34375 z"
       id="path3721" />
    <path
       style="fill:#161616;fill-opacity:1;fill-rule:evenodd;stroke:#000000;stroke-width:1px;stroke-linecap:butt;stroke-linejoin:miter;stroke-opacity:1"
       d="M 515,522.59375 C 514.53583,522.62067 514.25,522.75 514.25,522.75 C 514.25,522.75 513.03203,526.81939 512.96875,527.03125 C 513.56397,527.11348 513.93749,527.15624 513.9375,527.15625 L 515.71875,535.34375 C 517.44516,535.34375 518.91451,535.3105 520.25,535.25 C 520.29758,523.59179 516.6246,522.49954 515,522.59375 z"
       id="path3723" />
    <path
       style="fill:#161616;fill-opacity:1;fill-rule:evenodd;stroke:#000000;stroke-width:1px;stroke-linecap:butt;stroke-linejoin:miter;stroke-opacity:1"
       d="M 568.78125,525.75 C 567.90674,525.79834 567.25,526.5 567.25,526.5 C 563.58468,525.50037 562.90111,530.07354 563.25,535.46875 C 567.23521,535.55335 570.3817,535.56846 570.71875,535.34375 C 571.79018,534.62947 570.71875,533.21875 570.71875,533.21875 L 572.40625,533.125 C 571.63562,526.94804 570.00192,525.68253 568.78125,525.75 z"
       id="path3719" />
    <path
       style="fill:#161616;fill-opacity:1;fill-rule:evenodd;stroke:#000000;stroke-width:1px;stroke-linecap:butt;stroke-linejoin:miter;stroke-opacity:1"
       d="M 635,518.5625 L 628.90625,518.6875 C 627.51829,519.42538 622.60249,522.39346 628.25,525 C 630.56796,526.06983 632.49899,527.5128 634.03125,528.9375 L 644.65625,528.9375 C 644.65625,522.50893 635,518.56252 635,518.5625 z"
       id="path3715" />
    <path
       style="fill:#161616;fill-opacity:1;fill-rule:evenodd;stroke:#000000;stroke-width:1px;stroke-linecap:butt;stroke-linejoin:miter;stroke-opacity:1"
       d="M 601.9375,514.8125 C 601.75496,515.02237 598.35411,519 602.25,519 C 606.0764,519 616.06798,518.57096 616.96875,518.53125 C 617.32286,518.45765 617.66293,518.38463 617.9375,518.3125 L 619.5,517.59375 C 620.2593,516.09207 606.41166,515.09777 601.9375,514.8125 z"
       id="path3717" />
  </g>
  <g
     inkscape:groupmode="layer"
     id="layer15"
     inkscape:label="clawlines"
     style="opacity:1;display:inline"
     transform="translate(-61.696063,-49.197282)">
    <path
       style="opacity:0.53684238;fill:#ffffff;fill-opacity:1;stroke:none;stroke-width:1;stroke-miterlimit:4;stroke-dasharray:none;stroke-opacity:1"
       id="path3790"
       d="M 622.56988,518.17961 C 621.82749,518.78566 621.1341,519.45182 620.43628,520.10855 C 619.74552,520.78355 619.10049,521.50417 618.52209,522.27758 C 618.02438,522.89066 617.73523,523.59328 617.55131,524.35293 C 617.36747,525.41312 617.31613,526.49887 617.4043,527.57046 C 617.47868,528.60495 617.93913,529.51574 618.46805,530.38444 C 618.81758,530.93991 619.32241,531.23565 619.95119,531.36081 C 620.34565,531.40911 620.14794,531.39008 620.54431,531.41788 L 617.5465,533.55049 C 617.13077,533.4968 617.33909,533.53098 616.92165,533.44728 C 616.23707,533.235 615.67558,532.84312 615.30842,532.21199 C 614.78147,531.28397 614.28793,530.32373 614.20271,529.23935 C 614.08997,528.14672 614.13139,527.03163 614.26142,525.9415 C 614.41603,525.1443 614.65166,524.37159 615.16985,523.72853 C 615.73843,522.92119 616.4012,522.18998 617.08945,521.48313 C 617.76992,520.84179 618.45145,520.20019 619.13107,519.55963 L 622.56988,518.17961 z" />
    <path
       style="opacity:0.53684238;fill:#ffffff;fill-opacity:1;stroke:none;stroke-width:1;stroke-miterlimit:4;stroke-dasharray:none;stroke-opacity:1"
       id="path3792"
       d="M 610.14134,520.20722 C 609.0002,520.80132 609.23933,520.68045 612.76316,518.69837 C 612.88365,518.63059 612.52768,518.8434 612.41283,518.92035 C 612.07301,519.14801 611.77148,519.40185 611.47164,519.67862 C 610.9801,520.16547 610.52424,520.69039 610.11061,521.24498 C 609.64213,521.88088 609.27784,522.57973 608.93882,523.29035 C 608.61563,523.96994 608.3806,524.67613 608.24553,525.41537 C 608.15481,525.97723 608.14331,526.54689 608.13831,527.11465 C 608.12826,527.67923 608.11611,528.24184 608.19828,528.80141 C 608.21255,528.88978 608.22681,528.97814 608.24108,529.0665 L 604.98281,530.79239 C 604.96864,530.70319 604.95446,530.61399 604.94029,530.52478 C 604.84702,529.94711 604.84077,529.37187 604.8498,528.78691 C 604.85407,528.19828 604.86444,527.60802 604.94949,527.02439 C 605.07501,526.2557 605.28106,525.51527 605.61121,524.80678 C 605.94071,524.0843 606.29464,523.37391 606.73663,522.71287 C 607.12485,522.11838 607.61421,521.59821 608.08815,521.07271 C 609.47925,519.67588 611.28822,518.73076 613.05961,517.9124 L 610.14134,520.20722 z" />
    <path
       style="opacity:0.53684238;fill:#ffffff;fill-opacity:1;stroke:none;stroke-width:1;stroke-miterlimit:4;stroke-dasharray:none;stroke-opacity:1"
       id="path3794"
       d="M 605.80999,518.94142 C 605.28484,519.44098 604.74878,519.92752 604.26039,520.46387 C 603.8197,520.95163 603.50674,521.53189 603.19363,522.10496 C 602.93161,522.60143 602.70319,523.11844 602.54444,523.65735 C 602.42022,524.13531 602.40452,524.63033 602.39334,525.1212 C 602.35896,525.61736 602.40765,526.10172 602.49087,526.58954 C 602.51814,526.83986 602.58458,527.08276 602.64713,527.32578 L 599.40329,529.08423 C 599.33669,528.83204 599.25438,528.58194 599.23113,528.32073 C 599.14365,527.81203 599.05728,527.31092 599.10102,526.79155 C 599.10721,526.27508 599.11498,525.75527 599.21585,525.24673 C 599.3507,524.67301 599.58419,524.13384 599.84065,523.60466 C 600.16785,523.02393 600.45119,522.40912 600.88037,521.89403 C 601.33501,521.33399 601.87376,520.85672 602.39097,520.35763 L 605.80999,518.94142 z" />
    <path
       style="opacity:0.53684238;fill:#ffffff;fill-opacity:1;stroke:none;stroke-width:1;stroke-miterlimit:4;stroke-dasharray:none;stroke-opacity:1"
       id="path3796"
       d="M 599.85589,514.648 C 599.50327,515.08615 599.2519,515.5815 598.99076,516.0756 C 598.81671,516.4211 598.66444,516.79493 598.77731,517.18093 C 598.82071,517.33984 598.89813,517.42892 599.02676,517.52116 L 595.87559,519.47824 C 595.72528,519.32726 595.59242,519.18057 595.52923,518.97064 C 595.3596,518.50235 595.42115,518.04428 595.62625,517.59289 C 595.87542,517.09717 596.10585,516.579 596.46468,516.15104 L 599.85589,514.648 z" />
    <path
       style="opacity:0.53684238;fill:#ffffff;fill-opacity:1;stroke:none;stroke-width:1;stroke-miterlimit:4;stroke-dasharray:none;stroke-opacity:1"
       id="path3798"
       d="M 593.35589,515.398 C 592.98587,515.99523 592.83444,516.68393 592.72945,517.36939 C 592.65223,517.94647 592.64284,518.52916 592.63889,519.11042 C 592.65414,519.3506 592.67934,519.57611 592.84168,519.75988 L 589.65539,521.65697 C 589.46364,521.38881 589.37201,521.11497 589.35115,520.78269 C 589.35553,520.18317 589.36605,519.58252 589.43931,518.98666 C 589.53699,518.27195 589.67769,517.5674 589.96468,516.90104 L 593.35589,515.398 z" />
    <path
       style="opacity:0.53684238;fill:#ffffff;fill-opacity:1;stroke:none;stroke-width:1;stroke-miterlimit:4;stroke-dasharray:none;stroke-opacity:1"
       id="path3800"
       d="M 583.89134,517.70722 C 582.74188,518.47508 583.99795,517.62981 586.64843,516.14713 C 586.72679,516.10329 586.503,516.2525 586.4313,516.30656 C 586.23354,516.45567 586.08037,516.60099 585.92966,516.79671 C 585.68488,517.19575 585.66293,517.66446 585.64268,518.11931 C 585.63616,518.43054 585.6293,518.28372 585.65717,518.56004 L 582.38441,520.28234 C 582.33255,519.95394 582.3451,520.11974 582.34735,519.7849 C 582.35791,519.28134 582.36869,518.76793 582.55043,518.2911 C 582.71016,517.9656 582.90163,517.69891 583.21945,517.5079 C 586.48108,515.54763 585.40241,516.03706 586.80961,515.4124 L 583.89134,517.70722 z" />
    <path
       style="opacity:0.53684238;fill:#ffffff;fill-opacity:1;stroke:none;stroke-width:1;stroke-miterlimit:4;stroke-dasharray:none;stroke-opacity:1"
       id="path3804"
       d="M 560.87463,526.99633 C 566.40374,523.68185 563.62026,525.36817 562.43923,526.2843 C 561.96519,526.65584 561.52476,527.06138 561.09822,527.48559 C 560.66065,527.95305 560.23801,528.43256 559.86545,528.95369 C 559.5515,529.40171 559.45471,529.91828 559.40717,530.45116 C 559.37553,531.00865 559.35788,531.56492 559.44449,532.11754 C 559.48624,532.49307 559.57626,532.80884 559.90155,533.01886 L 556.77006,534.98984 C 556.4238,534.68093 556.22812,534.31381 556.18584,533.84452 C 556.08877,533.26526 556.08084,532.68622 556.11509,532.0997 C 556.14506,531.5196 556.19827,530.94327 556.49515,530.42804 C 556.84036,529.87541 557.26833,529.3898 557.7029,528.9061 C 558.10005,528.4463 558.55051,528.03542 559.0326,527.6647 C 560.38384,526.39151 562.31178,525.71804 563.76652,524.68309 L 560.87463,526.99633 z" />
    <path
       style="opacity:0.53684238;fill:#ffffff;fill-opacity:1;stroke:none;stroke-width:1;stroke-miterlimit:4;stroke-dasharray:none;stroke-opacity:1"
       id="path3806"
       d="M 557.08086,525.42214 C 556.5633,525.75333 556.06083,526.10949 555.61369,526.53196 C 555.09565,527.06806 554.58571,527.61196 554.06858,528.149 C 553.62167,528.61858 553.18013,529.09848 552.77399,529.60419 C 552.46195,529.98673 552.29167,530.42159 552.20294,530.90119 C 552.13563,531.38609 552.1393,531.87702 552.13843,532.36548 C 552.13861,532.44873 552.13878,532.53198 552.13896,532.61523 L 548.85015,534.29225 C 548.84981,534.20869 548.84946,534.12514 548.84912,534.04159 C 548.84795,533.53698 548.84275,533.03119 548.88758,532.52805 C 548.9509,532.00691 549.06496,531.49895 549.38944,531.07129 C 549.74976,530.51206 550.26256,530.05893 550.69244,529.55398 C 551.20874,529.02288 551.7195,528.48653 552.21782,527.93845 C 552.64423,527.4883 553.12327,527.12362 553.6201,526.75728 L 557.08086,525.42214 z" />
    <path
       style="opacity:0.53684238;fill:#ffffff;fill-opacity:1;stroke:none;stroke-width:1;stroke-miterlimit:4;stroke-dasharray:none;stroke-opacity:1"
       id="path3810"
       d="M 522.47193,522.3269 C 522.7429,523.16107 523.20462,523.90751 523.62901,524.66836 C 523.99988,525.14712 524.22328,525.65539 524.31769,526.24963 C 524.39029,526.85535 524.39556,527.46625 524.39927,528.07546 C 524.3951,528.68343 524.39151,529.29142 524.38944,529.8994 C 524.38941,530.46741 524.39198,531.03541 524.39331,531.60342 C 524.39394,531.94629 524.39367,531.77541 524.39413,532.11606 L 521.10576,533.79156 C 521.10624,533.45035 521.10595,533.62153 521.10663,533.278 C 521.10817,532.7079 521.1111,532.13782 521.11333,531.56773 C 521.11398,530.96142 521.11585,530.35511 521.11549,529.7488 C 521.11863,529.1555 521.12574,528.5604 521.06511,527.96938 C 520.98494,527.4172 520.77869,526.94758 520.45186,526.49133 C 520.04465,525.71757 519.61466,524.95542 519.26731,524.15156 L 522.47193,522.3269 z" />
    <path
       style="opacity:0.53684238;fill:#ffffff;fill-opacity:1;stroke:none;stroke-width:1;stroke-miterlimit:4;stroke-dasharray:none;stroke-opacity:1"
       id="path3812"
       d="M 517.65201,511.58768 C 517.63687,512.25741 517.64486,512.92312 517.57265,513.58983 C 517.51946,514.18822 517.43136,514.77894 517.22065,515.34318 C 517.02955,515.80413 516.73705,516.21245 516.44224,516.61154 C 516.17081,516.97246 515.83377,517.26913 515.47881,517.54495 C 515.15716,517.78988 514.86292,518.06628 514.55758,518.33011 C 514.40024,518.49539 514.47126,518.4063 514.34475,518.59759 L 510.9717,520.13185 C 511.06189,519.86768 511.00709,519.9938 511.13469,519.75287 C 511.39654,519.43836 511.73446,519.18401 512.0535,518.93054 C 512.3759,518.63459 512.77768,518.41507 513.03523,518.052 C 513.3752,517.71725 513.61961,517.2975 513.86815,516.89298 C 514.10063,516.35444 514.25366,515.80847 514.28498,515.21652 C 514.36813,514.56958 514.38939,513.92322 514.34799,513.27117 L 517.65201,511.58768 z" />
    <path
       style="opacity:0.53684238;fill:#ffffff;fill-opacity:1;stroke:none;stroke-width:1;stroke-miterlimit:4;stroke-dasharray:none;stroke-opacity:1"
       id="path3814"
       d="M 522.40201,512.58768 C 522.37722,513.22376 522.38556,513.86063 522.38869,514.49704 C 522.36744,515.00047 522.26664,515.49815 522.1367,515.98384 C 522.02159,516.47501 521.89571,516.97147 521.67288,517.42583 C 521.41186,517.82507 521.03151,518.13185 520.67813,518.44731 C 520.46054,518.66165 520.56801,518.55784 520.35598,518.759 L 516.94314,520.18446 C 517.14004,519.95231 517.03258,520.05983 517.26576,519.86212 C 517.57314,519.51521 517.95253,519.23865 518.29287,518.92503 C 518.57871,518.53322 518.7024,518.04441 518.81155,517.57744 C 518.91886,517.10872 519.04097,516.64462 519.11131,516.16695 C 519.1144,515.53507 519.12304,514.9027 519.09799,514.27117 L 522.40201,512.58768 z" />
    <path
       style="opacity:0.53684238;fill:#ffffff;fill-opacity:1;stroke:none;stroke-width:1;stroke-miterlimit:4;stroke-dasharray:none;stroke-opacity:1"
       id="path3816"
       d="M 516.23539,488.01468 C 517.22387,488.24981 518.17443,488.60714 519.15683,488.86357 C 520.09133,489.14526 521.02518,489.41982 521.98927,489.57911 C 522.71164,489.67464 523.44121,489.67167 524.16829,489.6797 C 524.95437,489.68056 525.74044,489.6783 526.52653,489.67928 C 527.56948,489.69445 528.6034,489.52285 529.60927,489.25953 C 530.49719,489.01932 531.39992,488.8148 532.23258,488.41495 C 535.19584,486.63025 521.61463,494.6552 533.31502,487.79644 C 534.23078,487.25962 531.47504,488.85556 530.55182,489.37945 C 530.34776,489.49525 530.95051,489.13191 531.14723,489.00404 C 531.63048,488.6944 532.06986,488.32541 532.53018,487.9845 C 532.84809,487.74845 533.15701,487.50064 533.47045,487.25871 L 536.88765,485.8805 C 536.58892,486.14533 536.2561,486.36529 535.95304,486.62625 C 535.48788,486.96867 535.04783,487.34184 534.56417,487.6587 C 533.33667,488.57377 531.55472,489.44892 530.47895,490.08701 C 529.57418,490.62368 534.12314,487.98331 533.20872,488.50336 C 529.28447,490.73518 530.96151,489.94032 529.3597,490.68765 C 528.51085,491.01863 527.62418,491.2294 526.74156,491.44964 C 525.70113,491.68471 524.64481,491.85356 523.57414,491.82528 C 522.78307,491.82959 521.99198,491.83508 521.20089,491.83167 C 520.46105,491.82683 519.71928,491.79487 518.98795,491.6752 C 518.0353,491.47254 517.10778,491.17757 516.17088,490.91387 C 515.17794,490.63176 514.20223,490.28701 513.18327,490.10494 L 516.23539,488.01468 z" />
    <path
       style="opacity:0.53684238;fill:#ffffff;fill-opacity:1;stroke:none;stroke-opacity:1"
       id="path3256"
       d="M 517.31733,496.22129 C 517.53791,496.5979 517.80354,496.94764 518.07013,497.29268 C 518.52006,497.85715 519.0674,498.32813 519.64941,498.7502 C 520.12537,499.11133 520.65499,499.37234 521.22645,499.53972 C 521.73368,499.685 522.26041,499.71993 522.78466,499.74157 C 523.66446,499.76278 524.53973,499.66824 525.41144,499.56193 C 526.76227,499.3815 528.10223,499.12823 529.43565,498.84864 C 530.79357,498.53637 532.14962,498.21474 533.48928,497.83074 C 534.15218,497.65472 534.797,497.42082 535.42349,497.14325 C 536.16304,496.8095 536.91609,496.50777 537.65854,496.18049 C 538.10339,496.0128 538.54136,495.82989 538.96483,495.61434 C 538.62523,495.80815 538.28632,496.00317 537.94603,496.19577 C 537.9199,496.21055 537.99629,496.16286 538.02226,496.1478 C 538.41784,495.91844 538.81685,495.69498 539.21063,495.46254 C 539.56105,495.25569 538.50588,495.86956 538.15234,496.07102 C 538.11508,496.09225 538.22406,496.02397 538.26053,496.00142 C 538.39227,495.887 538.54493,495.80285 538.69163,495.71018 C 538.83385,495.60986 538.98102,495.51824 539.11819,495.41088 L 540.32768,494.92867 C 540.18791,495.0328 540.05581,495.14513 539.90306,495.23129 C 539.76958,495.33928 539.61035,495.4039 539.47712,495.51281 C 539.41259,495.57804 539.4512,495.54743 539.37137,495.59404 C 538.97853,495.82339 538.58117,496.04519 538.1931,496.28251 C 537.84943,496.49268 538.88912,495.87671 539.23812,495.67553 C 539.26532,495.65984 539.18508,495.70915 539.15856,495.72596 C 538.75705,495.95814 538.35554,496.19032 537.95403,496.4225 C 537.54225,496.62208 537.11127,496.77695 536.68759,496.9488 C 535.9344,497.27299 535.173,497.5784 534.43123,497.92849 C 533.81687,498.19228 533.17993,498.39796 532.53279,498.56595 C 531.19855,498.92211 529.85095,499.22348 528.50954,499.55098 C 527.16071,499.82953 525.80575,500.07845 524.44363,500.28327 C 523.55296,500.3928 522.65941,500.48444 521.76066,500.47861 C 521.22717,500.45312 520.69333,500.40837 520.17914,500.25301 C 519.60652,500.06131 519.07641,499.78345 518.59312,499.419 C 518.01134,498.97682 517.4728,498.48571 516.98742,497.93812 C 516.71236,497.5901 516.44615,497.23576 516.18268,496.87893 L 517.31733,496.22129 z" />
    <path
       style="opacity:0.53684238;fill:#ffffff;fill-opacity:1;stroke:none;stroke-opacity:1"
       id="path3258"
       d="M 520.04698,503.34923 C 520.12209,503.82875 520.39599,504.23191 520.66797,504.62074 C 521.05179,505.11443 521.47886,505.5952 521.9924,505.95944 C 522.08856,506.02765 522.19153,506.08573 522.29109,506.14887 C 522.76808,506.39678 523.27179,506.61124 523.80419,506.70523 C 523.92637,506.7268 524.04998,506.73922 524.17287,506.75622 C 525.22335,506.87817 526.27816,506.8086 527.32555,506.6982 C 528.60517,506.53847 529.87094,506.2919 531.1267,506.00193 C 532.58181,505.65095 533.99661,505.16285 535.38299,504.6029 C 535.89764,504.3865 536.41238,504.16409 536.90567,503.90142 C 537.02086,503.84008 537.35896,503.64255 537.24507,503.70627 C 536.43982,504.15683 536.18566,504.33025 536.67385,504.01016 C 536.88647,503.85114 536.78748,503.93054 536.97217,503.77365 L 538.16194,503.29016 C 537.97011,503.46239 538.07334,503.37507 537.85064,503.5502 C 536.78944,504.25805 535.65955,504.85313 534.47281,505.31858 C 533.07842,505.8696 531.65762,506.3535 530.19954,506.70886 C 528.94199,507.01026 527.66851,507.2356 526.38526,507.39738 C 526.16248,507.42331 525.94026,507.45459 525.71693,507.47518 C 524.8681,507.55345 524.0112,507.54439 523.16275,507.46966 C 523.03281,507.45262 522.90186,507.44205 522.77294,507.41854 C 522.23294,507.32008 521.7261,507.07751 521.24678,506.82054 C 521.14331,506.75422 521.03569,506.69397 520.93638,506.62158 C 520.42048,506.24552 520.00615,505.73937 519.60173,505.25261 C 519.52432,505.15356 519.4426,505.05774 519.36951,504.95547 C 519.15393,504.65384 518.99766,504.31026 518.89082,503.95655 L 520.04698,503.34923 z" />
    <path
       style="opacity:0.53684238;fill:#ffffff;fill-opacity:1;stroke:none;stroke-opacity:1"
       id="path3262"
       d="M 522.47576,509.20011 C 522.74038,509.45396 523.04516,509.65926 523.35914,509.8466 C 523.74119,510.09066 524.16474,510.21631 524.608,510.28665 C 525.24095,510.34895 525.87504,510.39982 526.51028,510.43377 C 527.6385,510.48685 528.76817,510.48725 529.89735,510.49475 C 531.35224,510.479 532.80201,510.32214 534.24278,510.12911 C 535.12587,509.9953 535.99705,509.81093 536.85335,509.55852 L 535.42504,510.65756 C 534.58189,510.88497 533.72294,511.04463 532.85762,511.16212 C 531.41303,511.33053 529.96148,511.47865 528.50667,511.50453 C 527.3583,511.50555 526.20926,511.50934 525.06137,511.47507 C 524.41261,511.44269 523.76154,511.40644 523.11674,511.33052 C 522.65843,511.24056 522.22065,511.08921 521.8235,510.83762 C 521.50107,510.63278 521.18406,510.41889 520.89387,510.1695 L 522.47576,509.20011 z" />
  </g>
  <g
     inkscape:groupmode="layer"
     id="layer8"
     inkscape:label="feathers2"
     style="display:inline"
     transform="translate(-61.696063,-49.197282)">
    <path
       style="fill:#c8c6c6;fill-opacity:1;fill-rule:evenodd;stroke:#000000;stroke-width:1px;stroke-linecap:butt;stroke-linejoin:miter;stroke-opacity:1"
       d="M 574.15625,378.4375 C 573.18491,379.18416 572.21772,379.95644 571.25,380.8125 C 544.98603,404.04601 520.71875,403.03124 520.71875,403.03125 C 520.71875,403.03125 504.06169,409.09374 501.03125,409.09375 C 498.0008,409.09375 489.93751,406.06249 489.9375,406.0625 C 468.21922,414.6488 442.93749,413.12501 442.9375,413.125 L 368.71875,432.3125 L 367.5,433.9375 C 367.5,433.9375 374.65626,439.99106 387.15625,441.0625 C 387.15625,441.0625 389.9866,452.50446 417.84375,455.71875 C 417.84375,455.71875 437.1518,467.8616 496.4375,470.71875 C 496.4375,470.71875 504.84945,473.90325 510.5625,484.40625 L 511.125,483.84375 C 511.125,483.84375 516.18911,478.01236 522.25,495.4375 C 528.31091,512.86263 529.31249,480.31251 529.3125,480.3125 C 529.3125,480.3125 530.03544,478.00853 531.5625,477.9375 C 531.87734,477.92286 532.20854,478.03825 532.59375,478.25 L 528.21875,471.0625 C 534.29018,464.99107 533.56252,459.28125 533.5625,459.28125 C 567.49107,449.28125 601.79909,418.22323 602.15625,413.9375 C 602.51339,409.65179 606.43748,406.78125 606.4375,406.78125 C 606.4375,406.78125 614.71534,401.87972 627.96875,392.09375 C 625.35869,391.15856 620.8418,391.59107 613.5625,394.28125 C 580.70536,406.42411 605,389.28125 605,389.28125 C 574.64161,402.29199 573.83586,383.62148 574.15625,378.4375 z"
       id="path3225" />
    <path
       style="opacity:1;fill:#424242;fill-opacity:1;fill-rule:evenodd;stroke:#000000;stroke-width:1px;stroke-linecap:butt;stroke-linejoin:miter;stroke-opacity:1;display:inline"
       d="M 365.65625,252.8125 L 332.34375,274.0625 L 295.15625,309.15625 C 295.15625,309.15625 283.21429,323.21875 280,330.71875 C 280,330.71875 263.58037,354.27677 261.4375,358.5625 L 250.34375,366.0625 C 250.34375,366.0625 212.85714,373.94197 197.5,389.65625 C 197.5,389.65625 138.2009,410.00446 120.34375,430.71875 C 120.34375,430.71875 116.41964,434.29911 123.5625,439.65625 C 123.5625,439.65625 108.88457,447.99174 122.25,454.09375 L 268,420 L 400,294 L 365.65625,252.8125 z"
       id="path3404" />
  </g>
  <g
     inkscape:groupmode="layer"
     id="layer7"
     inkscape:label="feathers"
     style="opacity:1;display:inline"
     transform="translate(-61.696063,-49.197282)">
    <path
       style="fill:#9f9f9f;fill-opacity:1;fill-rule:evenodd;stroke:#000000;stroke-width:1px;stroke-linecap:butt;stroke-linejoin:miter;stroke-opacity:1"
       d="M 651.03125,50 C 636.56383,49.970267 623.49109,51.772322 617.84375,56.4375 C 609.62947,63.223214 600.72766,55.714285 572.15625,105 C 572.15625,105 554.99554,153.92411 546.78125,159.28125 C 546.09859,159.72646 545.24827,160.24412 544.3125,160.78125 C 545.61094,167.75215 551.98853,178.07251 571.4375,192.15625 C 612.86606,222.15626 647.86161,222.14733 615.71875,295.71875 C 583.57589,369.29017 574.28125,377.15625 574.28125,377.15625 C 574.28126,377.15626 570,404.28125 605,389.28125 C 605,389.28125 580.70536,406.42411 613.5625,394.28125 C 620.8669,391.5818 625.39415,391.14582 628,392.09375 C 638.36011,384.43628 651.78125,373.75 666.78125,360 C 701.06696,328.57143 706.07589,303.91963 718.21875,266.0625 C 730.3616,228.20536 727.15623,189.65626 727.15625,189.65625 C 727.15625,189.65625 727.51337,186.08036 722.15625,171.4375 C 716.79911,156.79464 690.71875,135.71875 690.71875,135.71875 C 690.71875,135.71875 697.15623,126.4375 727.15625,141.4375 C 727.15625,141.4375 729.62949,134.65179 725.34375,126.4375 C 725.34375,126.4375 708.55806,110.34375 705.34375,110.34375 C 705.34375,110.34375 702.13395,102.5 698.5625,102.5 C 698.5625,102.5 711.0848,87.495536 699.65625,76.78125 C 699.65625,76.78125 692.13395,53.205359 671.0625,51.0625 C 664.47768,50.392857 657.60735,50.013515 651.03125,50 z"
       id="path3215" />
    <path
       style="fill:url(#linearGradient3698);fill-opacity:1;fill-rule:evenodd;stroke:none;stroke-width:1px;stroke-linecap:butt;stroke-linejoin:miter;stroke-opacity:1"
       d="M 652.41322,132.74264 C 652.41322,132.74264 626.49029,160.54037 638.16986,180.47081 C 649.84942,200.40126 673.49341,215.61133 678.62102,240.26214 C 683.74863,264.91296 725.33927,248.65391 725.33927,248.65391 C 725.33927,248.65391 735.87936,161.58934 702.26501,152.1486 C 668.65066,142.70786 690.01571,151.09963 652.41322,132.74264 z"
       id="path3690" />
    <path
       style="fill:url(#linearGradient3712);fill-opacity:1;fill-rule:evenodd;stroke:none;stroke-width:1px;stroke-linecap:butt;stroke-linejoin:miter;stroke-opacity:1"
       d="M 640.86656,132.10962 L 612.27043,147.8416 L 684.63244,262.05917 L 724.9095,271.28161 L 667.34665,138.63813 L 640.86656,132.10962 z"
       id="path3704" />
  </g>
  <g
     inkscape:groupmode="layer"
     id="layer9"
     inkscape:label="feathers3"
     style="opacity:1;display:inline"
     transform="translate(-61.696063,-49.197282)">
    <path
       style="fill:#828282;fill-opacity:1;fill-rule:evenodd;stroke:#000000;stroke-width:1px;stroke-linecap:butt;stroke-linejoin:miter;stroke-opacity:1;display:inline"
       d="M 267,428.5 L 129.15625,458.625 C 131.07901,459.69511 135.45879,460.52335 145.34375,459.65625 L 96.78125,492.84375 L 101.4375,495 C 83.09714,512.27737 82.782327,510.03036 105,510 L 127.15625,507.5 L 151.4375,495.71875 L 157.5,495 L 196.78125,468.9375 C 196.78125,468.9375 201.41517,463.21875 200.34375,470.71875 L 249.28125,450.71875 C 249.28125,450.71875 258.70711,450.04983 271.3125,448.96875 L 267,428.5 z"
       id="path3335" />
    <path
       style="fill:#828282;fill-opacity:1;fill-rule:evenodd;stroke:#000000;stroke-width:1px;stroke-linecap:butt;stroke-linejoin:miter;stroke-opacity:1;display:inline"
       d="M 314.65625,404.5625 C 270.10156,404.53906 176.25,412.875 175.5,412.5 C 175.5,412.5 141.0375,422.86071 117.03125,446.125 C 115.68837,449.36591 117.19601,453.18929 127.84375,456.0625 C 127.84375,456.0625 126.02854,459.54834 135.9375,459.96875 C 135.96957,459.94693 136.25,459.75 136.25,459.75 C 136.25,459.75 217.96283,454.21186 248.875,450.875 L 249.28125,450.71875 C 249.28125,450.71875 251.93581,450.52384 252.6875,450.46875 C 254.82192,450.21337 256.69492,449.96751 258,449.75 L 258.96875,449.96875 C 278.20685,448.46128 323.10704,444.64239 335.71875,440.71875 L 367.5,433.9375 L 368.71875,432.3125 L 442.9375,413.125 C 442.9375,413.125 443.20882,413.15244 443.28125,413.15625 L 443.5,413 C 443.5,413 332,418 337.5,408 C 338.875,405.5 329.50781,404.57031 314.65625,404.5625 z"
       id="path3314"
       sodipodi:nodetypes="cccccccccccccccccsc" />
    <path
       style="fill:#828282;fill-opacity:1;fill-rule:evenodd;stroke:#000000;stroke-width:1px;stroke-linecap:butt;stroke-linejoin:miter;stroke-opacity:1"
       d="M 160.10918,431.30452 C 160.10918,431.30452 152.53303,409.08117 239.40615,381.30197 L 240.92138,381.80705 C 240.92138,381.80705 367.19045,394.93903 359.10923,405.04056 C 351.02801,415.14208 411.13209,414.13193 411.13209,414.13193 L 378.30213,421.203 C 378.30213,421.203 317.1879,430.29437 309.10668,432.81975 C 301.02546,435.34513 243.44676,435.34513 235.36554,435.34513 C 227.28432,435.34513 196.47467,440.3959 176.7767,441.91113 C 157.07872,443.42635 160.10918,431.30452 160.10918,431.30452 z"
       id="path3304" />
    <path
       style="fill:#828282;fill-opacity:1;fill-rule:evenodd;stroke:#000000;stroke-width:1px;stroke-linecap:butt;stroke-linejoin:miter;stroke-opacity:1"
       d="M 277.79195,361.604 C 277.79195,361.604 206.07112,385.84766 191.42391,416.65731 C 176.7767,447.46697 269.20565,422.71823 269.20565,422.71823 L 277.79195,361.604 z"
       id="path3296" />
    <path
       style="fill:#828282;fill-opacity:1;stroke:#000000;stroke-width:1;stroke-miterlimit:4;stroke-dasharray:none;stroke-opacity:1"
       d="M 303.14693,347.22969 C 298.49684,348.44129 296.92951,353.73458 292.43244,355.33348 C 280.45211,358.67693 269.93333,365.20552 258.94728,370.63594 C 248.98892,375.75224 239.00791,382.75479 235.5492,393.50724 C 232.76558,401.88901 231.35517,410.73602 231.19152,419.51154 C 231.43155,424.89275 235.33776,431.37977 241.88738,430.53571 C 248.5536,430.91578 255.26507,430.27467 261.39497,427.59137 C 278.16156,422.93956 295.31709,419.59586 312.711,417.96941 C 326.05179,416.64653 339.36126,415.09046 352.5264,412.60773 C 361.55013,410.93771 370.72226,409.77087 379.5847,407.45334 C 383.6554,406.47528 389.3598,401.47986 381.96823,400.00263 C 373.41053,395.94093 364.94737,391.55745 357.85021,385.37576 C 347.78358,378.43854 339.06364,369.79677 328.13351,364.00233 C 320.35131,358.21149 311.88873,353.29638 304.27627,347.29664 C 303.83921,347.69639 303.57988,346.95044 303.14693,347.22969 z M 383.25928,405.11373 C 383.15225,405.38499 381.67782,405.73392 383.25928,405.11373 z"
       id="path3283" />
    <path
       id="path3425"
       d="M 267,428.5 L 129.15625,458.625 C 131.07901,459.69511 135.45879,460.52335 145.34375,459.65625 L 96.78125,492.84375 L 101.4375,495 C 83.09714,512.27737 82.782327,510.03036 105,510 L 127.15625,507.5 L 151.4375,495.71875 L 157.5,495 L 196.78125,468.9375 C 196.78125,468.9375 201.41517,463.21875 200.34375,470.71875 L 249.28125,450.71875 C 249.28125,450.71875 258.70711,450.04983 271.3125,448.96875 L 267,428.5 z"
       style="fill:#828282;fill-opacity:1;fill-rule:evenodd;stroke:#000000;stroke-width:1px;stroke-linecap:butt;stroke-linejoin:miter;stroke-opacity:1;display:inline" />
    <path
       sodipodi:nodetypes="cccccccccccccccccsc"
       id="path3427"
       d="M 314.65625,404.5625 C 270.10156,404.53906 176.25,412.875 175.5,412.5 C 175.5,412.5 141.0375,422.86071 117.03125,446.125 C 115.68837,449.36591 117.19601,453.18929 127.84375,456.0625 C 127.84375,456.0625 126.02854,459.54834 135.9375,459.96875 C 135.96957,459.94693 136.25,459.75 136.25,459.75 C 136.25,459.75 217.96283,454.21186 248.875,450.875 L 249.28125,450.71875 C 249.28125,450.71875 251.93581,450.52384 252.6875,450.46875 C 254.82192,450.21337 256.69492,449.96751 258,449.75 L 258.96875,449.96875 C 278.20685,448.46128 323.10704,444.64239 335.71875,440.71875 L 367.5,433.9375 L 368.71875,432.3125 L 442.9375,413.125 C 442.9375,413.125 443.20882,413.15244 443.28125,413.15625 L 443.5,413 C 443.5,413 332,418 337.5,408 C 338.875,405.5 329.50781,404.57031 314.65625,404.5625 z"
       style="fill:#828282;fill-opacity:1;fill-rule:evenodd;stroke:#000000;stroke-width:1px;stroke-linecap:butt;stroke-linejoin:miter;stroke-opacity:1;display:inline" />
    <path
       id="path3429"
       d="M 160.10918,431.30452 C 160.10918,431.30452 152.53303,409.08117 239.40615,381.30197 L 240.92138,381.80705 C 240.92138,381.80705 367.19045,394.93903 359.10923,405.04056 C 351.02801,415.14208 411.13209,414.13193 411.13209,414.13193 L 378.30213,421.203 C 378.30213,421.203 317.1879,430.29437 309.10668,432.81975 C 301.02546,435.34513 243.44676,435.34513 235.36554,435.34513 C 227.28432,435.34513 196.47467,440.3959 176.7767,441.91113 C 157.07872,443.42635 160.10918,431.30452 160.10918,431.30452 z"
       style="fill:#828282;fill-opacity:1;fill-rule:evenodd;stroke:#000000;stroke-width:1px;stroke-linecap:butt;stroke-linejoin:miter;stroke-opacity:1" />
    <path
       id="path3431"
       d="M 277.79195,361.604 C 277.79195,361.604 206.07112,385.84766 191.42391,416.65731 C 176.7767,447.46697 269.20565,422.71823 269.20565,422.71823 L 277.79195,361.604 z"
       style="fill:#828282;fill-opacity:1;fill-rule:evenodd;stroke:#000000;stroke-width:1px;stroke-linecap:butt;stroke-linejoin:miter;stroke-opacity:1" />
    <path
       id="path3433"
       d="M 303.14693,347.22969 C 298.49684,348.44129 296.92951,353.73458 292.43244,355.33348 C 280.45211,358.67693 269.93333,365.20552 258.94728,370.63594 C 248.98892,375.75224 239.00791,382.75479 235.5492,393.50724 C 232.76558,401.88901 231.35517,410.73602 231.19152,419.51154 C 231.43155,424.89275 235.33776,431.37977 241.88738,430.53571 C 248.5536,430.91578 255.26507,430.27467 261.39497,427.59137 C 278.16156,422.93956 295.31709,419.59586 312.711,417.96941 C 326.05179,416.64653 339.36126,415.09046 352.5264,412.60773 C 361.55013,410.93771 370.72226,409.77087 379.5847,407.45334 C 383.6554,406.47528 389.3598,401.47986 381.96823,400.00263 C 373.41053,395.94093 364.94737,391.55745 357.85021,385.37576 C 347.78358,378.43854 339.06364,369.79677 328.13351,364.00233 C 320.35131,358.21149 311.88873,353.29638 304.27627,347.29664 C 303.83921,347.69639 303.57988,346.95044 303.14693,347.22969 z M 383.25928,405.11373 C 383.15225,405.38499 381.67782,405.73392 383.25928,405.11373 z"
       style="fill:#828282;fill-opacity:1;stroke:#000000;stroke-width:1;stroke-miterlimit:4;stroke-dasharray:none;stroke-opacity:1" />
    <path
       id="path3435"
       d="M 267,428.5 L 129.15625,458.625 C 131.07901,459.69511 135.45879,460.52335 145.34375,459.65625 L 96.78125,492.84375 L 101.4375,495 C 83.09714,512.27737 82.782327,510.03036 105,510 L 127.15625,507.5 L 151.4375,495.71875 L 157.5,495 L 196.78125,468.9375 C 196.78125,468.9375 201.41517,463.21875 200.34375,470.71875 L 249.28125,450.71875 C 249.28125,450.71875 258.70711,450.04983 271.3125,448.96875 L 267,428.5 z"
       style="fill:#828282;fill-opacity:1;fill-rule:evenodd;stroke:#000000;stroke-width:1px;stroke-linecap:butt;stroke-linejoin:miter;stroke-opacity:1;display:inline" />
    <path
       sodipodi:nodetypes="cccccccccccccccccsc"
       id="path3437"
       d="M 314.65625,404.5625 C 270.10156,404.53906 176.25,412.875 175.5,412.5 C 175.5,412.5 141.0375,422.86071 117.03125,446.125 C 115.68837,449.36591 117.19601,453.18929 127.84375,456.0625 C 127.84375,456.0625 126.02854,459.54834 135.9375,459.96875 C 135.96957,459.94693 136.25,459.75 136.25,459.75 C 136.25,459.75 217.96283,454.21186 248.875,450.875 L 249.28125,450.71875 C 249.28125,450.71875 251.93581,450.52384 252.6875,450.46875 C 254.82192,450.21337 256.69492,449.96751 258,449.75 L 258.96875,449.96875 C 278.20685,448.46128 323.10704,444.64239 335.71875,440.71875 L 367.5,433.9375 L 368.71875,432.3125 L 442.9375,413.125 C 442.9375,413.125 443.20882,413.15244 443.28125,413.15625 L 443.5,413 C 443.5,413 332,418 337.5,408 C 338.875,405.5 329.50781,404.57031 314.65625,404.5625 z"
       style="fill:#828282;fill-opacity:1;fill-rule:evenodd;stroke:#000000;stroke-width:1px;stroke-linecap:butt;stroke-linejoin:miter;stroke-opacity:1;display:inline" />
    <path
       id="path3439"
       d="M 160.10918,431.30452 C 160.10918,431.30452 152.53303,409.08117 239.40615,381.30197 L 240.92138,381.80705 C 240.92138,381.80705 367.19045,394.93903 359.10923,405.04056 C 351.02801,415.14208 411.13209,414.13193 411.13209,414.13193 L 378.30213,421.203 C 378.30213,421.203 317.1879,430.29437 309.10668,432.81975 C 301.02546,435.34513 243.44676,435.34513 235.36554,435.34513 C 227.28432,435.34513 196.47467,440.3959 176.7767,441.91113 C 157.07872,443.42635 160.10918,431.30452 160.10918,431.30452 z"
       style="fill:#828282;fill-opacity:1;fill-rule:evenodd;stroke:#000000;stroke-width:1px;stroke-linecap:butt;stroke-linejoin:miter;stroke-opacity:1" />
    <path
       id="path3441"
       d="M 277.79195,361.604 C 277.79195,361.604 206.07112,385.84766 191.42391,416.65731 C 176.7767,447.46697 269.20565,422.71823 269.20565,422.71823 L 277.79195,361.604 z"
       style="fill:#828282;fill-opacity:1;fill-rule:evenodd;stroke:#000000;stroke-width:1px;stroke-linecap:butt;stroke-linejoin:miter;stroke-opacity:1" />
    <path
       id="path3443"
       d="M 303.14693,347.22969 C 298.49684,348.44129 296.92951,353.73458 292.43244,355.33348 C 280.45211,358.67693 269.93333,365.20552 258.94728,370.63594 C 248.98892,375.75224 239.00791,382.75479 235.5492,393.50724 C 232.76558,401.88901 231.35517,410.73602 231.19152,419.51154 C 231.43155,424.89275 235.33776,431.37977 241.88738,430.53571 C 248.5536,430.91578 255.26507,430.27467 261.39497,427.59137 C 278.16156,422.93956 295.31709,419.59586 312.711,417.96941 C 326.05179,416.64653 339.36126,415.09046 352.5264,412.60773 C 361.55013,410.93771 370.72226,409.77087 379.5847,407.45334 C 383.6554,406.47528 389.3598,401.47986 381.96823,400.00263 C 373.41053,395.94093 364.94737,391.55745 357.85021,385.37576 C 347.78358,378.43854 339.06364,369.79677 328.13351,364.00233 C 320.35131,358.21149 311.88873,353.29638 304.27627,347.29664 C 303.83921,347.69639 303.57988,346.95044 303.14693,347.22969 z M 383.25928,405.11373 C 383.15225,405.38499 381.67782,405.73392 383.25928,405.11373 z"
       style="fill:#828282;fill-opacity:1;stroke:#000000;stroke-width:1;stroke-miterlimit:4;stroke-dasharray:none;stroke-opacity:1" />
    <path
       style="fill:#828282;fill-opacity:1;fill-rule:evenodd;stroke:#000000;stroke-width:1px;stroke-linecap:butt;stroke-linejoin:miter;stroke-opacity:1;display:inline"
       d="M 267,428.5 L 129.15625,458.625 C 131.07901,459.69511 135.45879,460.52335 145.34375,459.65625 L 96.78125,492.84375 L 101.4375,495 C 83.09714,512.27737 82.782327,510.03036 105,510 L 127.15625,507.5 L 151.4375,495.71875 L 157.5,495 L 196.78125,468.9375 C 196.78125,468.9375 201.41517,463.21875 200.34375,470.71875 L 249.28125,450.71875 C 249.28125,450.71875 258.70711,450.04983 271.3125,448.96875 L 267,428.5 z"
       id="path3445" />
    <path
       style="fill:#828282;fill-opacity:1;fill-rule:evenodd;stroke:#000000;stroke-width:1px;stroke-linecap:butt;stroke-linejoin:miter;stroke-opacity:1;display:inline"
       d="M 314.65625,404.5625 C 270.10156,404.53906 176.25,412.875 175.5,412.5 C 175.5,412.5 141.0375,422.86071 117.03125,446.125 C 115.68837,449.36591 117.19601,453.18929 127.84375,456.0625 C 127.84375,456.0625 126.02854,459.54834 135.9375,459.96875 C 135.96957,459.94693 136.25,459.75 136.25,459.75 C 136.25,459.75 217.96283,454.21186 248.875,450.875 L 249.28125,450.71875 C 249.28125,450.71875 251.93581,450.52384 252.6875,450.46875 C 254.82192,450.21337 256.69492,449.96751 258,449.75 L 258.96875,449.96875 C 278.20685,448.46128 323.10704,444.64239 335.71875,440.71875 L 367.5,433.9375 L 368.71875,432.3125 L 442.9375,413.125 C 442.9375,413.125 443.20882,413.15244 443.28125,413.15625 L 443.5,413 C 443.5,413 332,418 337.5,408 C 338.875,405.5 329.50781,404.57031 314.65625,404.5625 z"
       id="path3447"
       sodipodi:nodetypes="cccccccccccccccccsc" />
    <path
       style="fill:#828282;fill-opacity:1;fill-rule:evenodd;stroke:#000000;stroke-width:1px;stroke-linecap:butt;stroke-linejoin:miter;stroke-opacity:1"
       d="M 160.10918,431.30452 C 160.10918,431.30452 152.53303,409.08117 239.40615,381.30197 L 240.92138,381.80705 C 240.92138,381.80705 367.19045,394.93903 359.10923,405.04056 C 351.02801,415.14208 411.13209,414.13193 411.13209,414.13193 L 378.30213,421.203 C 378.30213,421.203 317.1879,430.29437 309.10668,432.81975 C 301.02546,435.34513 243.44676,435.34513 235.36554,435.34513 C 227.28432,435.34513 196.47467,440.3959 176.7767,441.91113 C 157.07872,443.42635 160.10918,431.30452 160.10918,431.30452 z"
       id="path3449" />
    <path
       style="fill:#828282;fill-opacity:1;fill-rule:evenodd;stroke:#000000;stroke-width:1px;stroke-linecap:butt;stroke-linejoin:miter;stroke-opacity:1"
       d="M 277.79195,361.604 C 277.79195,361.604 206.07112,385.84766 191.42391,416.65731 C 176.7767,447.46697 269.20565,422.71823 269.20565,422.71823 L 277.79195,361.604 z"
       id="path3451" />
    <path
       style="fill:#828282;fill-opacity:1;stroke:#000000;stroke-width:1;stroke-miterlimit:4;stroke-dasharray:none;stroke-opacity:1"
       d="M 303.14693,347.22969 C 298.49684,348.44129 296.92951,353.73458 292.43244,355.33348 C 280.45211,358.67693 269.93333,365.20552 258.94728,370.63594 C 248.98892,375.75224 239.00791,382.75479 235.5492,393.50724 C 232.76558,401.88901 231.35517,410.73602 231.19152,419.51154 C 231.43155,424.89275 235.33776,431.37977 241.88738,430.53571 C 248.5536,430.91578 255.26507,430.27467 261.39497,427.59137 C 278.16156,422.93956 295.31709,419.59586 312.711,417.96941 C 326.05179,416.64653 339.36126,415.09046 352.5264,412.60773 C 361.55013,410.93771 370.72226,409.77087 379.5847,407.45334 C 383.6554,406.47528 389.3598,401.47986 381.96823,400.00263 C 373.41053,395.94093 364.94737,391.55745 357.85021,385.37576 C 347.78358,378.43854 339.06364,369.79677 328.13351,364.00233 C 320.35131,358.21149 311.88873,353.29638 304.27627,347.29664 C 303.83921,347.69639 303.57988,346.95044 303.14693,347.22969 z M 383.25928,405.11373 C 383.15225,405.38499 381.67782,405.73392 383.25928,405.11373 z"
       id="path3453" />
  </g>
  <g
     inkscape:groupmode="layer"
     id="layer12"
     inkscape:label="feathers4"
     style="opacity:1;display:inline"
     transform="translate(-61.696063,-49.197282)">
    <path
       style="fill:#5b5b5b;fill-opacity:1;fill-rule:evenodd;stroke:#000000;stroke-width:1px;stroke-linecap:butt;stroke-linejoin:miter;stroke-opacity:1;display:inline"
       d="M 391.1875,232.0625 C 387.40759,235.14558 375.55998,244.89889 372.84375,248.21875 L 348.875,263.5 C 316.51208,294.40318 277.72245,337.52958 294,353.5 C 294,353.5 306,370.5 328.5,366 C 328.5,366 332.5,378 353,385 C 353,385 352.5,411.5 379,413 C 405.5,414.5 412,417 443,413.5 L 513.5,399 L 567.73044,383.41449 L 573.51283,378.57534 L 587.375,356.59375 L 391.1875,232.0625 z"
       id="path3393"
       sodipodi:nodetypes="ccccccscccccc" />
    <path
       style="fill:#5b5b5b;fill-opacity:1;fill-rule:evenodd;stroke:#000000;stroke-width:1px;stroke-linecap:butt;stroke-linejoin:miter;stroke-opacity:1;display:inline"
       d="M 391.1875,232.0625 C 387.40759,235.14558 375.55998,244.89889 372.84375,248.21875 L 348.875,263.5 C 346.94622,264.31372 345.40179,265.57605 344.125,267 C 344.125,267 344.06156,267.08922 344.03125,267.125 C 344.02159,267.13596 344.00963,267.14527 344,267.15625 C 343.96217,267.20144 343.96737,267.20482 343.90625,267.28125 C 342.93042,268.50146 339.32812,273.46875 344.25,275 C 344.25,275 333.75,284.875 345.875,288.875 L 370.53125,327.75 L 370.84375,334.59375 C 374.6648,339.99682 378.82823,345.08286 383.25,350.03125 L 482.3125,405.40625 L 513.5,399 L 567.71875,383.40625 L 573.5,378.5625 L 587.375,356.59375 L 391.1875,232.0625 z"
       id="path3420" />
    <path
       style="fill:#c8c6c6;fill-opacity:1;fill-rule:evenodd;stroke:#000000;stroke-width:1px;stroke-linecap:butt;stroke-linejoin:miter;stroke-opacity:1;display:inline"
       d="M 346.98904,285.5 C 346.98904,285.5 336.02347,299.65502 352.97026,306.22699 C 352.97026,306.22699 348.48435,320.88754 360.94522,329.48166 C 360.94522,329.48166 365.43114,355.26401 372.90766,358.80276 C 380.38419,362.34152 378.88888,351.72526 378.88888,351.72526 C 378.88888,351.72526 382.37793,365.37474 383.87323,363.85813 C 383.87323,363.85813 383.3748,377.00207 392.34662,377.00207 C 392.34662,377.00207 393.84193,391.66262 415.27463,395.20138 C 415.77307,393.68477 418.26524,409.35639 438.70108,409.35639 C 437.15628,411.18433 440.79981,413.13071 444.6823,414.60133 C 450.89608,414.76086 471.3389,414.67135 489.47914,407.39744 C 489.47915,407.39743 497.5172,410.46226 500.53816,410.46226 C 503.55912,410.46225 520.16404,404.33263 520.16404,404.33263 C 520.16404,404.33262 543.23075,405.28661 568.69914,383.44766 C 567.16114,381.36205 565.23161,379.78602 562.81138,379.02422 C 548.35677,374.47439 538.38807,388.62941 538.38807,388.62941 C 529.91467,380.54083 515.46006,390.14601 515.46006,390.14601 C 503.49762,379.52975 494.02736,393.68477 494.02736,393.68477 C 490.03988,385.09065 476.0837,391.15709 476.0837,391.15709 C 476.58213,380.03529 459.13691,383.06851 459.13691,383.06851 C 456.64473,369.92456 445.67917,379.02422 445.67917,379.02422 C 444.18386,369.41903 434.7136,371.94671 434.7136,371.94671 C 432.22142,351.72526 407.29967,358.80276 407.29967,358.80276 C 406.3028,341.61453 393.34349,346.16436 393.34349,346.16436 C 393.34349,324.4263 375.39984,331.5038 375.39984,331.5038 C 383.87323,317.85432 355.96087,299.14948 355.96087,299.14948 C 355.96087,290.55536 346.98904,285.5 346.98904,285.5 z"
       id="path3361" />
    <path
       style="fill:#c8c6c6;fill-opacity:1;fill-rule:evenodd;stroke:#000000;stroke-width:1px;stroke-linecap:butt;stroke-linejoin:miter;stroke-opacity:1;display:inline"
       d="M 553.125,150.5625 C 552.59662,151.53104 552.10368,152.43434 551.59375,153.28125 C 552.10083,152.43893 552.59965,151.52505 553.125,150.5625 z M 544.3125,160.78125 C 533.99749,166.70596 510,177.5 510,177.5 L 469.28125,192.84375 L 429.28125,210 L 416.0625,216.78125 L 392.84375,230.71875 C 392.84375,230.71875 376.05803,244.29017 372.84375,248.21875 L 351.21875,262.03125 C 356.79624,262.14466 365.65829,260.21173 379.71875,254.21875 C 379.71875,254.21875 374.05273,264.82107 392.4375,257.75 C 392.43749,257.75001 397.39098,307.26779 430.625,323.53125 C 430.62501,323.53126 432.75555,341.91789 453.96875,342.625 C 453.96875,342.625 462.43509,361.7065 485.0625,366.65625 C 485.06249,366.65626 493.54536,377.2506 507.6875,371.59375 C 507.6875,371.59374 516.90136,382.21567 526.09375,374.4375 C 526.09374,374.43749 543.77086,397.04651 567.8125,363.8125 C 567.81249,363.81249 573.36696,365.56636 585.78125,358.9375 C 592.23168,347.0178 601.82516,327.51962 615.71875,295.71875 C 647.86161,222.14733 612.86606,222.15626 571.4375,192.15625 C 551.98853,178.07251 545.61094,167.75215 544.3125,160.78125 z"
       id="path3376" />
  </g>
  <g
     inkscape:groupmode="layer"
     id="layer3"
     inkscape:label="eye"
     style="opacity:1;display:inline"
     transform="translate(-61.696063,-49.197282)">
    <path
       style="fill:#555555;fill-opacity:1;fill-rule:evenodd;stroke:none;stroke-width:1px;stroke-linecap:butt;stroke-linejoin:miter;stroke-opacity:1"
       d="M 655.36046,99.152786 C 654.05366,85.524091 641.19101,89.426052 641.19101,89.426052 C 641.19101,89.426052 644.7171,82.867103 656.75233,92.466134 C 656.75233,92.466134 660.62718,102.78508 650.90306,105.05653 C 645.81352,105.61812 643.1182,105.63275 639.40483,101.82996 C 633.01603,95.015605 638.87812,96.455437 638.87812,96.455437 C 638.87812,96.455437 642.50813,103.85192 648.89694,102.43226 C 655.28574,101.0126 651.87567,102.84388 655.36046,99.152786 z"
       id="path3156"
       sodipodi:nodetypes="ccccccsc" />
    <path
       sodipodi:type="arc"
       style="opacity:1;fill:url(#radialGradient3176);fill-opacity:1;stroke:none;stroke-opacity:1"
       id="path3154"
       sodipodi:cx="646.49762"
       sodipodi:cy="95.302536"
       sodipodi:rx="8.3337584"
       sodipodi:ry="5.9346466"
       d="M 654.83138,95.302536 A 8.3337584,5.9346466 0 1 1 638.16386,95.302536 A 8.3337584,5.9346466 0 1 1 654.83138,95.302536 z"
       transform="matrix(1.0506447,0.3882888,-0.3698272,1.1030927,2.8702395,-260.12578)" />
    <path
       sodipodi:type="arc"
       style="opacity:1;fill:#000000;fill-opacity:1;stroke:none;stroke-opacity:1"
       id="path3166"
       sodipodi:cx="647.85712"
       sodipodi:cy="96.517853"
       sodipodi:rx="2.6785715"
       sodipodi:ry="2.7678571"
       d="M 650.53569,96.517853 A 2.6785715,2.7678571 0 1 1 645.17855,96.517853 A 2.6785715,2.7678571 0 1 1 650.53569,96.517853 z"
       transform="matrix(1.2649182,0,0,1.1605777,-171.74229,-14.887244)" />
    <path
       sodipodi:type="arc"
       style="opacity:1;fill:#ffffff;fill-opacity:1;stroke:none;stroke-opacity:1"
       id="path3168"
       sodipodi:cx="648.64423"
       sodipodi:cy="90.25177"
       sodipodi:rx="1.1364216"
       sodipodi:ry="1.2626907"
       d="M 649.78065,90.25177 A 1.1364216,1.2626907 0 1 1 647.5078,90.25177 A 1.1364216,1.2626907 0 1 1 649.78065,90.25177 z"
       transform="matrix(1.1499256,0,0,1.1243097,-97.140869,-11.687883)" />
  </g>
  <g
     inkscape:groupmode="layer"
     id="layer4"
     inkscape:label="beak"
     style="display:inline"
     transform="translate(-61.696063,-49.197282)">
    <path
       style="fill:url(#linearGradient3203);fill-opacity:1;fill-rule:evenodd;stroke:#000000;stroke-width:1px;stroke-linecap:butt;stroke-linejoin:miter;stroke-opacity:1"
       d="M 689.77094,135.51103 C 689.77094,135.51103 699.35425,126.26647 726.67214,140.79638 C 726.67214,140.79638 732.01559,130.97216 718.76797,120.75228 C 715.85815,118.50751 711.04125,113.52886 706.08394,111.34583 L 702.5611,110.45482 C 677.05474,109.94974 689.77094,135.51103 689.77094,135.51103 z"
       id="path3189"
       sodipodi:nodetypes="ccsccc" />
    <path
       style="fill:#cecece;fill-opacity:1;fill-rule:evenodd;stroke:#000000;stroke-width:1px;stroke-linecap:butt;stroke-linejoin:miter;stroke-opacity:1"
       d="M 685.13597,111.08617 C 685.13597,111.08617 692.71211,101.48971 698.01541,102.7524 C 703.31871,104.01509 705.21275,111.08617 705.21275,111.08617 C 705.21275,111.08617 700.28825,116.89454 694.22734,116.13693 C 688.16642,115.37931 685.3885,112.09632 685.13597,111.08617 z"
       id="path3187"
       sodipodi:nodetypes="cscsc" />
  </g>
  <g
     inkscape:groupmode="layer"
     id="layer5"
     inkscape:label="BlackOutline"
     style="display:inline"
     transform="translate(-61.696063,-49.197282)">
    <path
       style="opacity:1;fill:none;fill-opacity:1;fill-rule:evenodd;stroke:#000000;stroke-width:1.60000002;stroke-linecap:butt;stroke-linejoin:miter;stroke-miterlimit:4;stroke-dasharray:none;stroke-opacity:1;display:inline"
       d="M 505.35714,518.92857 C 505,510.35714 510,510.35714 510,510.35714 L 522.5,511.78571 C 522.5,511.78571 516.42857,495.35714 510.71429,484.64286 C 505,473.92857 496.42857,470.71429 496.42857,470.71429 C 437.14286,467.85714 417.85714,455.71429 417.85714,455.71429 C 390,452.5 387.14286,441.07143 387.14286,441.07143 C 374.64286,440 367.5,433.92857 367.5,433.92857 L 335.71429,440.71429 C 319.64286,445.71429 249.28571,450.71429 249.28571,450.71429 L 200.35714,470.71429 C 201.42857,463.21429 196.78571,468.92857 196.78571,468.92857 L 157.5,495 L 151.42857,495.71429 L 127.14286,507.5 L 105,510 C 82.782327,510.03036 83.08821,512.27737 101.42857,495 L 96.785714,492.85714 L 145.35714,459.64286 C 125,461.42857 127.85714,456.07143 127.85714,456.07143 C 105.35714,450 123.57143,439.64286 123.57143,439.64286 C 116.42857,434.28571 120.35714,430.71429 120.35714,430.71429 C 138.21429,410 197.5,389.64286 197.5,389.64286 C 212.85714,373.92857 250.35714,366.07143 250.35714,366.07143 L 261.42857,358.57143 C 263.57143,354.28571 280,330.71429 280,330.71429 C 283.21429,323.21429 295.14286,309.14286 295.14286,309.14286 L 332.35714,274.07143 L 372.85714,248.21429 C 376.07143,244.28571 392.85714,230.71429 392.85714,230.71429 L 416.07143,216.78571 L 429.28571,210 L 469.28572,192.85714 L 510,177.5 C 510,177.5 538.57143,164.64286 546.78572,159.28571 C 555,153.92857 572.14286,105 572.14286,105 C 600.71429,55.714285 609.64286,63.214285 617.85714,56.428571 C 626.07143,49.642856 650,48.928571 671.07143,51.071428 C 692.14286,53.214285 699.64286,76.785713 699.64286,76.785713 C 711.07143,87.499999 698.57143,102.5 698.57143,102.5 C 702.14286,102.5 705.35714,110.35714 705.35714,110.35714 C 708.57143,110.35714 725.35714,126.42857 725.35714,126.42857 C 729.64286,134.64286 727.14286,141.42857 727.14286,141.42857 C 697.14286,126.42857 690.71429,135.71429 690.71429,135.71429 C 690.71429,135.71429 716.78572,156.78571 722.14286,171.42857 C 727.5,186.07143 727.14286,189.64286 727.14286,189.64286 C 727.14286,189.64286 730.35714,228.21429 718.21429,266.07143 C 706.07143,303.92857 701.07143,328.57143 666.78572,360 C 632.5,391.42857 606.42857,406.78571 606.42857,406.78571 C 606.42857,406.78571 602.5,409.64286 602.14286,413.92857 C 601.78572,418.21429 567.5,449.28571 533.57143,459.28571 C 533.57143,459.28571 534.28572,465 528.21429,471.07143 L 556.78572,517.85714 L 599.64286,514.64286 C 599.64286,514.64286 631.42857,516.42857 614.64286,518.92857 L 635,518.57143 C 635,518.57143 644.64286,522.5 644.64286,528.92857 L 633.21429,528.92857 L 630,530.35714 L 570.71429,533.21429 C 570.71429,533.21429 571.78572,534.64286 570.71429,535.35714 C 569.64286,536.07143 541.42857,534.64286 541.42857,534.64286 C 541.42857,534.64286 538.57143,532.5 539.28572,531.78571 C 540,531.07143 529.64286,532.14286 529.64286,532.14286 C 529.64286,532.14286 532.5,535.35714 515.71429,535.35714 L 513.92857,527.14286 C 513.92857,527.14286 512.14286,527.14286 508.92857,526.07143 C 505.71429,525 511.42857,520 511.42857,520 L 509.64286,518.21429 L 505.35714,518.92857 z"
       id="path2418"
       sodipodi:nodetypes="cccsccccccccccccccccccccccccccccccscssccccccscsscsccccccccccscscccsccc" />
  </g>
</svg>
